<?xml version="1.0" encoding="UTF-8"?>
<!DOCTYPE svg PUBLIC "-//W3C//DTD SVG 1.1//EN" "http://www.w3.org/Graphics/SVG/1.1/DTD/svg11.dtd">
<!-- Creator: CorelDRAW 2020 (64-Bit) -->
<svg xmlns="http://www.w3.org/2000/svg" xml:space="preserve" width="336px" height="444px" version="1.1" style="shape-rendering:geometricPrecision; text-rendering:geometricPrecision; image-rendering:optimizeQuality; fill-rule:evenodd; clip-rule:evenodd"
viewBox="0 0 202.65 267.99"
 xmlns:xlink="http://www.w3.org/1999/xlink"
 xmlns:xodm="http://www.corel.com/coreldraw/odm/2003">
 <defs>
  <style type="text/css">
   <![CDATA[
    .str0 {stroke:#252422;stroke-width:0.54;stroke-linecap:round;stroke-linejoin:round;stroke-miterlimit:10}
    .fil4 {fill:none;fill-rule:nonzero}
    .fil0 {fill:white}
    .fil6 {fill:#FEFEFE;fill-rule:nonzero}
    .fil3 {fill:#CC252B;fill-rule:nonzero}
    .fil5 {fill:#252422;fill-rule:nonzero}
    .fil1 {fill:#118A80;fill-rule:nonzero}
    .fil2 {fill:#3370B6;fill-rule:nonzero}
   ]]>
  </style>
 </defs>
 <g id="Layer_x0020_1">
  <metadata id="CorelCorpID_0Corel-Layer"/>
  <g id="_1610630725760">
   <path class="fil0" d="M101.16 3.06c0,0 0.73,2.93 3.53,3.89 2.8,0.97 58.17,1.45 58.17,1.45 0,0 11.56,-2.56 12.66,14.5 1.1,17.06 0,0.47 0,0.47l-0.91 121.1c0,0 -3.54,60.36 -69.15,69 0,0 -68.63,0.64 -77.52,-66.77l-1.29 -127.06c0,0 2.6,-12.73 13.93,-12.2 11.33,0.53 55.32,0.07 55.32,0.07l5.26 -4.45z"/>
   <path class="fil1" d="M158.14 129.91c-0.1,-5.58 -4.66,-10.09 -10.26,-10.09l-34.95 0c-4.57,0 -8.29,-3.72 -8.29,-8.29l0 -11.39c0,-0.01 0.01,-0.02 0.01,-0.03 0,-0.02 0.01,-0.04 0.02,-0.06 0.01,-0.01 0.03,-0.03 0.04,-0.05 0.01,0 0.01,-0.01 0.02,-0.02 3.17,-1.55 5.13,-4.71 5.13,-8.23l0 -5.15c0,-3.04 2.47,-5.51 5.51,-5.51l12.99 0c-0.09,-14.83 -12.17,-26.86 -27.02,-26.86 -14.85,0 -26.93,12.03 -27.02,26.86l12.99 0c3.04,0 5.51,2.47 5.51,5.51l0 5.15c0,3.52 1.96,6.68 5.13,8.23 0,0.01 0.01,0.02 0.01,0.02 0.02,0.02 0.04,0.04 0.05,0.05 0.01,0.02 0.02,0.04 0.02,0.06 0,0.01 0.01,0.02 0.01,0.03l0 11.39c0,4.57 -3.72,8.29 -8.29,8.29l-34.95 0c-5.6,0 -10.16,4.51 -10.26,10.09l38.56 0c9.33,0 16.92,-7.59 16.92,-16.92l0 -33.8c0,-4.61 -3.74,-8.35 -8.35,-8.35 -4.6,0 -8.34,3.74 -8.34,8.35 0,0.56 -0.46,1.02 -1.03,1.02 -0.57,0 -1.03,-0.46 -1.03,-1.02 0,-3.42 1.68,-6.63 4.5,-8.57 4.62,-3.19 10.93,-2.1 14.25,2.38l0 -5.8c0,-2.82 -2.29,-5.11 -5.11,-5.11 -2.62,0 -4.81,1.96 -5.09,4.56 -0.04,0.45 -0.42,0.78 -0.85,0.78 -0.03,0 -0.06,-0.01 -0.09,-0.01 -0.48,-0.05 -0.82,-0.48 -0.77,-0.95 0.3,-2.78 2.32,-5.14 5.02,-5.87 1.76,-0.48 3.61,-0.23 5.19,0.68 1.44,0.82 2.47,2.13 3.01,3.68 0.87,-2.46 3.09,-4.28 5.71,-4.56 3.75,-0.39 7.13,2.33 7.53,6.07 0.05,0.47 -0.29,0.9 -0.77,0.95 -0.03,0 -0.06,0.01 -0.09,0.01 -0.43,0 -0.81,-0.33 -0.85,-0.78 -0.15,-1.35 -0.82,-2.57 -1.88,-3.43 -1.06,-0.86 -2.4,-1.25 -3.75,-1.1 -2.61,0.28 -4.57,2.46 -4.57,5.08l0 5.81c1.96,-2.65 5.04,-4.23 8.35,-4.23 5.73,0 10.4,4.67 10.4,10.41 0,0.56 -0.47,1.02 -1.03,1.02 -0.57,0 -1.03,-0.46 -1.03,-1.02 0,-4.61 -3.74,-8.35 -8.34,-8.35 -4.61,0 -8.35,3.74 -8.35,8.35l0 33.8c0,9.33 7.59,16.92 16.92,16.92l38.56 0z"/>
   <path class="fil1" d="M169.22 142.78c-0.1,-5.58 -4.66,-10.1 -10.26,-10.1l-38.65 0c-8.64,0 -16.36,-5.68 -18.97,-13.89 -2.61,8.21 -10.33,13.89 -18.97,13.89l-38.65 0c-5.6,0 -10.17,4.52 -10.26,10.1l46.02 0c10.36,0 19.28,-7.04 21.69,-17.12 0,-0.01 0.01,-0.01 0.02,-0.02 0,-0.02 0.02,-0.03 0.03,-0.05 0.02,-0.02 0.03,-0.03 0.06,-0.04 0,0 0.01,-0.02 0.02,-0.02 0.01,0 0.02,0.01 0.04,0.01 0.01,0 0.03,-0.01 0.04,-0.01 0.01,0.01 0.02,0.02 0.03,0.02 0.02,0.01 0.03,0.02 0.05,0.04 0.01,0.02 0.03,0.03 0.03,0.05 0.01,0.01 0.02,0.01 0.02,0.02 2.41,10.08 11.33,17.12 21.69,17.12l46.02 0z"/>
   <path class="fil2" d="M146.72 180.81c-3.56,1.79 -7.45,2.69 -11.35,2.69 -3.89,0 -7.78,-0.9 -11.34,-2.69 -3.56,1.79 -7.45,2.69 -11.34,2.69 -3.9,0 -7.79,-0.9 -11.35,-2.69 -3.55,1.79 -7.45,2.69 -11.34,2.69 -3.9,0 -7.79,-0.9 -11.35,-2.69 -3.55,1.79 -7.45,2.69 -11.34,2.69 -3.9,0 -7.79,-0.9 -11.34,-2.69 -1.9,0.96 -3.92,1.67 -5.99,2.12 1.8,2.08 3.72,4.08 5.75,5.91 7.14,3.78 15.7,3.85 22.9,0.2 0,-0.01 0,0 0.01,-0.01 0.02,-0.01 0.04,0 0.06,0 0.03,0 0.05,-0.01 0.07,0 0.01,0.01 0.01,0 0.01,0.01 7.04,3.57 15.44,3.57 22.48,0.02 0.01,0 0.01,0 0.01,0 0.02,-0.01 0.05,-0.01 0.07,0 0.03,-0.01 0.05,-0.01 0.07,0 0,0 0.01,0 0.01,0 7.04,3.55 15.44,3.55 22.48,-0.02 0,-0.01 0,0 0.01,-0.01 0.02,-0.01 0.04,0 0.06,0 0.03,0 0.05,-0.01 0.07,0 0.01,0.01 0.01,0 0.02,0.01 7.2,3.65 15.76,3.58 22.89,-0.2 2.03,-1.84 3.96,-3.83 5.75,-5.91 -2.07,-0.45 -4.08,-1.16 -5.98,-2.12z"/>
   <path class="fil2" d="M162.18 168.63c1.43,-2.9 2.64,-5.92 3.64,-8.98 -2.51,0.81 -5.12,1.22 -7.74,1.22 -3.92,0 -7.83,-0.9 -11.36,-2.69 -3.56,1.79 -7.45,2.7 -11.35,2.7 -3.89,0 -7.78,-0.91 -11.34,-2.7 -3.56,1.79 -7.45,2.7 -11.34,2.7 -3.9,0 -7.79,-0.91 -11.35,-2.7 -3.55,1.79 -7.45,2.7 -11.34,2.7 -3.9,0 -7.79,-0.91 -11.35,-2.7 -3.55,1.79 -7.45,2.7 -11.34,2.7 -3.9,0 -7.79,-0.91 -11.35,-2.7 -3.53,1.78 -7.44,2.69 -11.36,2.69 -2.61,0 -5.23,-0.41 -7.74,-1.22 1,3.06 2.22,6.08 3.64,8.98 0.02,0.04 0.02,0.08 0.01,0.12 5.23,0.88 10.7,0.06 15.43,-2.34 0,-0.01 0.01,0 0.01,-0.01 0.02,0 0.04,0 0.06,0 0.03,0 0.05,0 0.07,0 0.01,0.01 0.01,0 0.02,0.01 7.05,3.58 15.47,3.58 22.53,0 0,-0.01 0,0 0.01,-0.01 0.02,0 0.04,0 0.06,0 0.03,0 0.05,0 0.07,0 0.01,0.01 0.01,0 0.01,0.01 7.04,3.57 15.44,3.58 22.48,0.02 0.01,0 0.01,0 0.01,0 0.03,-0.01 0.05,0 0.07,0 0.03,0 0.05,-0.01 0.07,0 0,0 0.01,0 0.01,0 7.04,3.56 15.44,3.55 22.48,-0.02 0,-0.01 0.01,0 0.01,-0.01 0.02,0 0.04,0 0.06,0 0.03,0 0.05,0 0.07,0 0.01,0.01 0.01,0 0.02,0.01 7.05,3.58 15.47,3.58 22.53,0 0,-0.01 0.01,0 0.01,-0.01 0.02,0 0.04,0 0.06,0 0.03,0 0.05,0 0.07,0 0.01,0.01 0.01,0 0.01,0.01 4.73,2.4 10.2,3.22 15.43,2.34 -0.01,-0.04 -0.01,-0.08 0.01,-0.12z"/>
   <path class="fil2" d="M146.6 177.72c0.02,-0.01 0.04,-0.01 0.06,-0.01 0.03,0 0.05,0 0.07,0.01 0.01,0 0.01,0 0.01,0 2.57,1.31 5.32,2.14 8.19,2.5 1.99,-2.57 3.81,-5.31 5.41,-8.14 -0.76,0.07 -1.53,0.12 -2.29,0.12 -3.93,0 -7.8,-0.92 -11.33,-2.7 -3.56,1.79 -7.45,2.69 -11.35,2.69 -3.89,0 -7.78,-0.9 -11.34,-2.69 -3.56,1.79 -7.45,2.69 -11.34,2.69 -3.9,0 -7.79,-0.9 -11.35,-2.69 -3.55,1.79 -7.45,2.69 -11.34,2.69 -3.9,0 -7.79,-0.9 -11.35,-2.69 -3.55,1.79 -7.45,2.69 -11.34,2.69 -3.9,0 -7.79,-0.9 -11.35,-2.69 -3.53,1.78 -7.4,2.7 -11.33,2.7 -0.76,0 -1.52,-0.05 -2.29,-0.12 1.6,2.83 3.42,5.57 5.42,8.14 2.86,-0.36 5.61,-1.19 8.18,-2.5 0,0 0.01,0 0.01,0 0.02,-0.01 0.04,-0.01 0.06,-0.01 0.03,0 0.05,0 0.07,0.01 0.01,0 0.01,0 0.02,0 7.05,3.58 15.47,3.58 22.53,0 0,0 0,0 0.01,0 0.02,-0.01 0.04,-0.01 0.06,-0.01 0.03,0 0.05,0 0.07,0.01 0.01,0 0.01,0 0.01,0 7.04,3.57 15.44,3.58 22.48,0.03 0.01,0 0.01,0 0.01,0 0.03,-0.01 0.05,-0.01 0.07,-0.01 0.03,0 0.05,0 0.07,0.01 0,0 0.01,0 0.01,0 7.04,3.55 15.44,3.54 22.48,-0.03 0,0 0.01,0 0.01,0 0.02,-0.01 0.04,-0.01 0.06,-0.01 0.03,0 0.05,0 0.07,0.01 0.01,0 0.01,0 0.02,0 7.05,3.58 15.47,3.58 22.53,0 0,0 0.01,0 0.01,0z"/>
   <path class="fil2" d="M101.34 203.44c-2.62,1.32 -5.41,2.14 -8.29,2.49 2.74,0.33 5.52,0.55 8.29,0.55 2.77,0 5.55,-0.22 8.3,-0.55 -2.89,-0.35 -5.68,-1.17 -8.3,-2.49z"/>
   <path class="fil2" d="M123.91 200.35c0.02,-0.01 0.04,-0.01 0.06,-0.01 0.03,0 0.05,0 0.07,0.01 0.01,0 0.01,0 0.02,0 0.87,0.44 1.78,0.84 2.71,1.18 4.65,-1.89 9.08,-4.3 13.2,-7.16 -1.51,0.28 -3.05,0.46 -4.58,0.46 -3.92,0 -7.82,-0.92 -11.36,-2.7 -3.56,1.79 -7.45,2.69 -11.34,2.69 -3.9,0 -7.79,-0.9 -11.35,-2.69 -3.55,1.79 -7.45,2.69 -11.34,2.69 -3.9,0 -7.79,-0.9 -11.35,-2.69 -3.53,1.78 -7.44,2.7 -11.36,2.7 -1.53,0 -3.06,-0.18 -4.58,-0.46 4.12,2.86 8.55,5.27 13.2,7.16 0.93,-0.34 1.84,-0.73 2.72,-1.18 0,0 0,0 0.01,0 0.02,-0.01 0.04,-0.01 0.06,-0.01 0.03,0 0.05,0 0.07,0.01 0.01,0 0.01,0 0.01,0 7.04,3.57 15.44,3.58 22.48,0.03 0.01,-0.01 0.01,0 0.01,-0.01 0.02,0 0.05,0 0.07,0 0.03,0 0.05,-0.01 0.07,0 0,0.01 0.01,0 0.01,0.01 7.04,3.55 15.44,3.54 22.48,-0.03 0,0 0.01,0 0.01,0z"/>
   <path class="fil2" d="M158.07 149.55c-3.91,0 -7.81,-0.9 -11.35,-2.68 -3.56,1.79 -7.45,2.69 -11.35,2.69 -3.89,0 -7.78,-0.9 -11.34,-2.69 -3.56,1.79 -7.45,2.69 -11.34,2.69 -3.9,0 -7.79,-0.9 -11.35,-2.69 -3.55,1.79 -7.45,2.69 -11.34,2.69 -3.9,0 -7.79,-0.9 -11.35,-2.69 -3.55,1.79 -7.45,2.69 -11.34,2.69 -3.9,0 -7.79,-0.9 -11.35,-2.69 -3.54,1.78 -7.44,2.68 -11.34,2.68 -3.61,0 -7.22,-0.78 -10.54,-2.31 0.38,3 0.96,6 1.74,8.91 6.55,2.5 13.87,2.12 20.12,-1.06 0,0 0.01,0 0.01,0 0.02,-0.01 0.04,-0.01 0.07,-0.01 0.02,0 0.04,0 0.06,0.01 0.01,0 0.01,0 0.02,0 7.05,3.59 15.47,3.59 22.53,0 0,0 0,0 0.01,0 0.02,-0.01 0.04,-0.01 0.07,-0.01 0.02,0 0.04,0 0.06,0.01 0.01,0 0.01,0 0.02,0 7.03,3.57 15.43,3.58 22.47,0.03 0.01,0 0.01,0 0.01,0 0.02,-0.01 0.05,-0.01 0.07,-0.01 0.03,0 0.05,0 0.07,0.01 0,0 0.01,0 0.01,0 7.04,3.55 15.44,3.55 22.48,-0.03 0,0 0,0 0.01,0 0.02,-0.01 0.04,-0.01 0.07,-0.01 0.02,0 0.04,0 0.06,0.01 0.01,0 0.01,0 0.02,0 7.05,3.59 15.47,3.59 22.53,0 0,0 0,0 0.01,0 0.02,-0.01 0.04,-0.01 0.07,-0.01 0.02,0 0.04,0 0.06,0.01 0,0 0.01,0 0.01,0 6.25,3.17 13.57,3.56 20.12,1.06 0.78,-2.91 1.36,-5.91 1.75,-8.91 -3.33,1.53 -6.94,2.31 -10.54,2.31z"/>
   <path class="fil3" d="M95.33 111.86c-14.62,-2.86 -25.23,-15.67 -25.31,-30.57l-2.91 0c0.08,16.06 11.49,30.04 27.21,33.34 0.58,-0.82 0.92,-1.77 1.01,-2.77z"/>
   <path class="fil3" d="M132.66 81.29c-0.09,14.9 -10.69,27.71 -25.31,30.57 0.08,1 0.43,1.95 1.01,2.77 15.72,-3.3 27.13,-17.28 27.21,-33.34l-2.91 0z"/>
   <path class="fil3" d="M167.09 63.64l-5.74 -1.29 3.96 -4.35 -5.83 -0.79 3.57 -4.67 -9.22 0 -24.01 13.86c-0.47,0.27 -0.65,0.85 -0.42,1.34 1.69,3.51 2.71,7.31 3,11.19 0.04,0.54 0.49,0.96 1.03,0.96l27.73 0 7.98 -4.61 -5.43 -2.27 4.66 -3.6 -5.61 -1.78 4.33 -3.99z"/>
   <path class="fil3" d="M149.47 33.13l-1.75 5.61 5.74 -1.25 -2.23 5.44 5.84 -0.75 -4.62 7.98 -24.01 13.87c-0.46,0.27 -1.06,0.13 -1.36,-0.32 -2.2,-3.22 -4.98,-6 -8.2,-8.19 -0.44,-0.3 -0.58,-0.9 -0.31,-1.37l13.87 -24.01 7.98 -4.61 -0.75 5.83 5.44 -2.23 -1.25 5.75 5.61 -1.75z"/>
   <path class="fil3" d="M118.96 15.51l-3.99 4.32 -1.79 -5.6 -3.59 4.65 -2.27 -5.42 -4.61 7.98 0 27.73c0,0.54 0.42,0.98 0.95,1.02 3.89,0.29 7.69,1.31 11.2,3 0.48,0.24 1.07,0.06 1.34,-0.41l13.86 -24.01 0 -9.22 -4.68 3.57 -0.79 -5.83 -4.34 3.96 -1.29 -5.74z"/>
   <path class="fil3" d="M35.59 63.64l5.74 -1.29 -3.96 -4.35 5.83 -0.79 -3.57 -4.67 9.22 0 24.01 13.86c0.47,0.27 0.65,0.85 0.41,1.34 -1.69,3.51 -2.71,7.31 -3,11.19 -0.04,0.54 -0.48,0.96 -1.02,0.96l-27.73 0 -7.98 -4.61 5.42 -2.27 -4.65 -3.6 5.6 -1.78 -4.32 -3.99z"/>
   <path class="fil3" d="M53.21 33.13l1.75 5.61 -5.75 -1.25 2.23 5.44 -5.83 -0.75 4.61 7.98 24.01 13.87c0.47,0.27 1.06,0.13 1.37,-0.32 2.19,-3.22 4.97,-6 8.19,-8.19 0.45,-0.3 0.58,-0.9 0.32,-1.37l-13.87 -24.01 -7.98 -4.61 0.75 5.83 -5.44 -2.23 1.25 5.75 -5.61 -1.75z"/>
   <path class="fil3" d="M83.72 15.51l3.99 4.32 1.78 -5.6 3.6 4.65 2.27 -5.42 4.61 7.98 0 27.73c0,0.54 -0.42,0.98 -0.96,1.02 -3.88,0.29 -7.68,1.31 -11.19,3 -0.48,0.24 -1.07,0.06 -1.34,-0.41l-13.86 -24.01 0 -9.22 4.67 3.57 0.79 -5.83 4.35 3.96 1.29 -5.74z"/>
   <line class="fil4 str0" x1="173.79" y1="138.8" x2="173.79" y2= "119.64" />
   <path class="fil5" d="M173.96 138.8c0,40.05 -32.58,72.64 -72.63,72.64 -40.05,0 -72.64,-32.59 -72.64,-72.64l0 -119.38c0,-5.78 4.7,-10.47 10.47,-10.47l55.48 0c2.59,0 5.04,-1.26 6.55,-3.36 0,-0.01 0.01,-0.01 0.02,-0.02 0.01,-0.01 0.01,-0.02 0.02,-0.02 0.01,-0.01 0.02,-0.01 0.03,-0.01 0.03,-0.01 0.04,-0.02 0.07,-0.02 0.02,0 0.04,0.01 0.06,0.02 0.02,0 0.03,0 0.04,0.01 0.01,0 0.01,0.01 0.01,0.02 0.01,0.01 0.02,0.01 0.03,0.02 1.51,2.1 3.96,3.36 6.55,3.36l55.47 0c5.77,0 10.47,4.69 10.47,10.47l0 119.38zm-10.47 -132.59l-55.47 0c-2.94,0 -5.32,-2.39 -5.32,-5.32l0 -0.34 -2.74 0 0 0.34c0,2.93 -2.39,5.32 -5.32,5.32l-55.48 0c-7.28,0 -13.2,5.93 -13.2,13.21l0 119.38c0,41.56 33.81,75.37 75.37,75.37 41.56,0 75.36,-33.81 75.36,-75.37l0 -119.38c0,-7.28 -5.92,-13.21 -13.2,-13.21z"/>
   <path class="fil5" d="M39.16 9.5c-5.47,0 -9.92,4.45 -9.92,9.92l0 119.38c0,39.75 32.34,72.09 72.09,72.09 39.74,0 72.08,-32.34 72.08,-72.09l0 -119.38c0,-5.47 -4.45,-9.92 -9.92,-9.92l-55.47 0c-2.6,0 -5.07,-1.19 -6.69,-3.2 -1.63,2.01 -4.09,3.2 -6.69,3.2l-55.48 0zm62.17 202.48c-40.35,0 -73.18,-32.82 -73.18,-73.18l0 -119.38c0,-6.08 4.94,-11.02 11.01,-11.02l55.48 0c2.41,0 4.69,-1.17 6.1,-3.13l0 -0.01 0.03 -0.08 0.25 -0.17 0.12 -0.01c0.11,-0.03 0.26,-0.04 0.4,0.01 0.07,0.01 0.13,0.04 0.18,0.07l0.15 0.09 0.04 0.09c1.41,1.97 3.69,3.14 6.11,3.14l55.47 0c6.08,0 11.02,4.94 11.02,11.02l0 119.38c0,40.36 -32.83,73.18 -73.18,73.18zm-62.17 -205.22c-6.97,0 -12.65,5.68 -12.65,12.66l0 119.38c0,41.26 33.56,74.82 74.82,74.82 41.25,0 74.82,-33.56 74.82,-74.82l0 -119.38c0,-6.98 -5.68,-12.66 -12.66,-12.66l-55.47 0c-3.17,0 -5.76,-2.52 -5.87,-5.66l-1.65 0c-0.11,3.14 -2.7,5.66 -5.86,5.66l-55.48 0zm62.17 207.96c-41.86,0 -75.92,-34.05 -75.92,-75.92l0 -119.38c0,-7.59 6.17,-13.76 13.75,-13.76l55.48 0c2.63,0 4.77,-2.14 4.77,-4.77l0 -0.89 3.83 0 0 0.89c0,2.63 2.15,4.77 4.78,4.77l55.47 0c7.58,0 13.75,6.17 13.75,13.76l0 119.38c0,41.87 -34.05,75.92 -75.91,75.92z"/>
   <path class="fil2" d="M202.65 120.22l0 19.26c0,55.96 -45.36,101.32 -101.32,101.32 -55.96,0 -101.33,-45.36 -101.33,-101.32l0 -19.26c6.51,3.68 14.46,3.68 20.97,0l0 19.26c0,44.38 35.98,80.35 80.36,80.35 44.38,0 80.36,-35.97 80.36,-80.35l0 -19.26c6.5,3.68 14.46,3.68 20.96,0z"/>
   <polygon class="fil6" points="16.84,137.83 17,141.07 11.96,144.38 17.29,147.18 17.44,150.4 9.12,145.91 4.09,146.15 3.95,143.27 9.06,143.03 "/>
   <path class="fil6" d="M12.14 162.9l4.3 -2.75 -0.01 -0.03 -5.09 -0.53 0.8 3.31zm7.79 -2.06l-11.6 7.87 -0.71 -2.92 2.61 -1.65 -1.16 -4.77 -3.08 -0.32 -0.69 -2.82 13.94 1.73 0.69 2.88z"/>
   <polygon class="fil6" points="25.01,174.53 15.28,178.97 17.93,184.8 15.73,185.8 11.87,177.36 23.81,171.9 "/>
   <path class="fil6" d="M24.95 190.97c-0.35,0.4 -0.62,0.84 -0.79,1.32 -0.18,0.47 -0.24,0.96 -0.18,1.47 0.06,0.52 0.28,1.04 0.65,1.57 0.38,0.53 0.8,0.91 1.27,1.13 0.47,0.22 0.95,0.33 1.46,0.32 0.5,-0.01 1,-0.12 1.5,-0.32 0.5,-0.19 0.98,-0.45 1.43,-0.77 0.46,-0.34 0.88,-0.71 1.25,-1.13 0.36,-0.42 0.63,-0.86 0.81,-1.34 0.19,-0.48 0.25,-0.97 0.19,-1.48 -0.06,-0.52 -0.28,-1.04 -0.65,-1.57 -0.38,-0.53 -0.8,-0.91 -1.27,-1.13 -0.47,-0.23 -0.96,-0.33 -1.47,-0.31 -0.5,0.01 -1.02,0.12 -1.53,0.33 -0.51,0.21 -1.01,0.48 -1.47,0.82 -0.45,0.32 -0.85,0.68 -1.2,1.09zm2 -4.67c0.86,-0.25 1.7,-0.33 2.53,-0.24 0.83,0.08 1.62,0.35 2.37,0.8 0.76,0.45 1.43,1.08 2.01,1.9 0.59,0.83 0.98,1.67 1.15,2.53 0.17,0.85 0.16,1.68 -0.03,2.5 -0.19,0.81 -0.54,1.58 -1.05,2.31 -0.51,0.72 -1.17,1.37 -1.97,1.94 -0.78,0.55 -1.59,0.95 -2.44,1.19 -0.84,0.24 -1.67,0.32 -2.49,0.22 -0.82,-0.09 -1.6,-0.36 -2.35,-0.81 -0.75,-0.44 -1.42,-1.08 -2.01,-1.91 -0.58,-0.82 -0.96,-1.66 -1.14,-2.51 -0.19,-0.86 -0.19,-1.69 -0.01,-2.5 0.18,-0.8 0.52,-1.56 1.03,-2.29 0.5,-0.71 1.14,-1.35 1.92,-1.91 0.8,-0.57 1.63,-0.97 2.48,-1.22z"/>
   <polygon class="fil6" points="33.36,208.55 39.35,196.12 41.49,198.16 37.24,206.86 37.27,206.89 45.78,202.25 47.94,204.3 35.72,210.8 "/>
   <path class="fil6" d="M53.78 218l1.21 -4.95 -0.03 -0.02 -4.04 3.13 2.86 1.84zm4.22 -6.87l-2.97 13.7 -2.52 -1.62 0.74 -3 -4.13 -2.65 -2.44 1.9 -2.45 -1.57 11.28 -8.36 2.49 1.6z"/>
   <path class="fil6" d="M87.65 227.5c0.51,0.1 0.95,0.06 1.32,-0.12 0.37,-0.18 0.61,-0.54 0.71,-1.08 0.06,-0.3 0.05,-0.56 -0.02,-0.77 -0.07,-0.22 -0.18,-0.4 -0.34,-0.54 -0.16,-0.14 -0.36,-0.26 -0.58,-0.34 -0.23,-0.09 -0.47,-0.16 -0.72,-0.21l-2.66 -0.51 -0.58 3.02 2.87 0.55zm-0.89 5.5c0.28,0.06 0.55,0.08 0.82,0.08 0.26,-0.01 0.5,-0.06 0.72,-0.15 0.21,-0.09 0.4,-0.23 0.55,-0.42 0.16,-0.2 0.27,-0.46 0.34,-0.8 0.12,-0.66 0.03,-1.17 -0.29,-1.53 -0.32,-0.35 -0.79,-0.59 -1.4,-0.71l-3.09 -0.59 -0.68 3.54 3.03 0.58zm2.26 -10.65c0.61,0.12 1.16,0.28 1.65,0.49 0.48,0.2 0.88,0.46 1.19,0.78 0.32,0.32 0.54,0.7 0.66,1.14 0.12,0.45 0.12,0.98 0,1.58 -0.12,0.65 -0.37,1.16 -0.75,1.54 -0.38,0.38 -0.89,0.65 -1.52,0.81 0.75,0.39 1.27,0.9 1.55,1.55 0.28,0.64 0.35,1.37 0.19,2.18 -0.12,0.65 -0.36,1.19 -0.7,1.61 -0.35,0.43 -0.76,0.75 -1.25,0.97 -0.48,0.22 -1.01,0.35 -1.59,0.39 -0.57,0.04 -1.15,0 -1.73,-0.11l-6.25 -1.2 2.48 -12.9 6.07 1.17z"/>
   <polygon class="fil6" points="109.41,223.24 109.41,225.67 102.48,225.67 102.48,228.49 108.84,228.48 108.84,230.73 102.48,230.73 102.48,233.95 109.56,233.95 109.57,236.37 99.6,236.38 99.59,223.25 "/>
   <polygon class="fil6" points="118.75,221.52 120.78,232.03 127.06,230.82 127.52,233.2 118.41,234.97 115.91,222.07 "/>
   <polygon class="fil6" points="140.38,214.31 141.28,216.56 134.85,219.14 135.89,221.75 141.8,219.38 142.64,221.47 136.73,223.84 137.93,226.82 144.5,224.19 145.4,226.44 136.15,230.15 131.26,217.96 "/>
   <path class="fil6" d="M156.94 216.63c0.35,-0.23 0.65,-0.51 0.9,-0.83 0.26,-0.33 0.42,-0.71 0.51,-1.14 0.08,-0.43 0.07,-0.91 -0.06,-1.43 -0.12,-0.52 -0.38,-1.08 -0.78,-1.69 -0.36,-0.55 -0.74,-1.01 -1.14,-1.39 -0.4,-0.37 -0.83,-0.64 -1.28,-0.8 -0.46,-0.15 -0.94,-0.18 -1.46,-0.09 -0.51,0.1 -1.07,0.34 -1.66,0.73l-1.73 1.14 4.54 6.91 2.16 -1.41zm-5.71 -9.06c0.71,-0.46 1.44,-0.78 2.2,-0.96 0.76,-0.17 1.51,-0.18 2.25,-0.02 0.74,0.16 1.46,0.49 2.16,1 0.69,0.51 1.34,1.23 1.94,2.14 0.52,0.8 0.9,1.6 1.14,2.41 0.24,0.82 0.32,1.6 0.22,2.37 -0.09,0.76 -0.35,1.49 -0.79,2.18 -0.43,0.69 -1.07,1.31 -1.91,1.86l-4.74 3.11 -7.2 -10.98 4.73 -3.11z"/>
   <path class="fil6" d="M160.91 199.88l2.07 -2.02 9.17 9.4 -2.07 2.01 -9.17 -9.39zm-2.29 -2.65l1.77 -1.73 1.49 1.53 -1.77 1.73 -1.49 -1.53z"/>
   <polygon class="fil6" points="168.14,191.36 170.02,188.72 176.02,189.22 173.56,183.73 175.43,181.11 179.2,189.76 183.31,192.68 181.64,195.04 177.47,192.08 "/>
   <polygon class="fil6" points="182.04,166.65 184.25,167.66 181.38,173.97 183.94,175.14 186.58,169.34 188.62,170.27 185.99,176.07 188.92,177.4 191.85,170.95 194.06,171.96 189.93,181.03 177.98,175.59 "/>
   <path class="fil6" d="M193.68 161c0.33,-0.08 0.62,-0.23 0.87,-0.44 0.24,-0.21 0.45,-0.48 0.63,-0.8 0.17,-0.32 0.3,-0.67 0.39,-1.04 0.06,-0.25 0.1,-0.53 0.13,-0.82 0.03,-0.3 0.01,-0.58 -0.05,-0.86 -0.06,-0.28 -0.17,-0.53 -0.34,-0.75 -0.17,-0.22 -0.41,-0.36 -0.73,-0.44 -0.35,-0.08 -0.66,-0.04 -0.92,0.13 -0.27,0.17 -0.52,0.41 -0.75,0.74 -0.23,0.32 -0.45,0.69 -0.67,1.12 -0.21,0.43 -0.44,0.86 -0.69,1.29 -0.23,0.45 -0.49,0.88 -0.77,1.29 -0.28,0.41 -0.6,0.76 -0.96,1.06 -0.36,0.29 -0.78,0.49 -1.24,0.61 -0.47,0.13 -0.99,0.12 -1.58,-0.02 -0.65,-0.16 -1.19,-0.44 -1.6,-0.84 -0.42,-0.39 -0.73,-0.86 -0.94,-1.39 -0.22,-0.53 -0.33,-1.1 -0.35,-1.71 -0.01,-0.61 0.05,-1.2 0.18,-1.77 0.17,-0.67 0.39,-1.29 0.69,-1.87 0.3,-0.58 0.67,-1.06 1.12,-1.46 0.45,-0.4 0.97,-0.67 1.55,-0.83 0.59,-0.15 1.25,-0.14 1.99,0.04l-0.66 2.72c-0.38,-0.07 -0.72,-0.07 -1,0.01 -0.28,0.07 -0.52,0.21 -0.72,0.4 -0.2,0.19 -0.36,0.43 -0.49,0.71 -0.13,0.27 -0.24,0.59 -0.32,0.93 -0.06,0.23 -0.09,0.46 -0.1,0.7 0,0.24 0.03,0.46 0.1,0.68 0.08,0.21 0.19,0.4 0.34,0.56 0.15,0.16 0.36,0.28 0.64,0.34 0.25,0.06 0.46,0.06 0.64,0 0.18,-0.05 0.37,-0.21 0.57,-0.46 0.19,-0.24 0.42,-0.6 0.67,-1.06 0.25,-0.46 0.57,-1.07 0.97,-1.82 0.1,-0.23 0.27,-0.54 0.5,-0.93 0.22,-0.39 0.52,-0.77 0.9,-1.12 0.37,-0.35 0.83,-0.62 1.36,-0.81 0.53,-0.2 1.16,-0.21 1.87,-0.04 0.58,0.14 1.1,0.39 1.55,0.74 0.44,0.34 0.79,0.78 1.05,1.32 0.25,0.53 0.4,1.16 0.45,1.87 0.04,0.71 -0.04,1.5 -0.25,2.37 -0.17,0.7 -0.42,1.36 -0.76,1.98 -0.33,0.62 -0.74,1.14 -1.23,1.56 -0.49,0.42 -1.06,0.7 -1.71,0.86 -0.64,0.17 -1.35,0.14 -2.14,-0.06l0.66 -2.72c0.43,0.11 0.81,0.12 1.15,0.03z"/>
   <path class="fil6" d="M186.25 145.81l0.14 -2.88 13.11 0.6 -0.13 2.89 -13.12 -0.61zm-3.48 -0.36l0.12 -2.48 2.13 0.1 -0.12 2.48 -2.13 -0.1z"/>
   <path class="fil2" d="M144.37 257.17c-3.53,-3.06 -4.05,-8.33 -1.19,-12.02 0.31,-0.4 0.44,-0.9 0.38,-1.4 -0.06,-0.5 -0.32,-0.95 -0.72,-1.26 -0.33,-0.25 -0.75,-0.39 -1.16,-0.39l-23.92 0c-1.04,0 -1.9,0.84 -1.9,1.89 0,0.67 0.37,1.3 0.95,1.64l5.4 3.11c0.14,0.09 0.22,0.23 0.22,0.4 0,0.25 -0.2,0.45 -0.45,0.45l-20.65 0 -20.66 0c-0.16,0 -0.31,-0.09 -0.39,-0.23 -0.12,-0.21 -0.05,-0.49 0.17,-0.62l5.39 -3.11c0.44,-0.25 0.75,-0.66 0.88,-1.15 0.13,-0.49 0.07,-1 -0.19,-1.44 -0.34,-0.58 -0.96,-0.94 -1.64,-0.94l-23.92 0c-1.04,0 -1.89,0.84 -1.89,1.89 0,0.41 0.14,0.83 0.4,1.16l0 0c2.85,3.69 2.33,8.96 -1.19,12.02 -0.79,0.68 -0.88,1.88 -0.19,2.67 0.36,0.41 0.88,0.65 1.43,0.65l8.7 0c0.68,0 1.27,-0.46 1.45,-1.11l1.66 -6.23c0.12,-0.44 0.52,-0.74 0.97,-0.74 0.56,0 1,0.45 1,1l0 12.68c0,1.05 0.86,1.9 1.9,1.9l26.12 0 26.12 0c1.04,0 1.89,-0.85 1.89,-1.9l0 -12.68c0,-0.45 0.3,-0.85 0.74,-0.97 0.54,-0.13 1.09,0.18 1.23,0.71l1.67 6.23c0.17,0.65 0.77,1.11 1.45,1.11l8.7 0c1.04,0 1.89,-0.85 1.89,-1.89 0,-0.55 -0.24,-1.08 -0.65,-1.43l0 0z"/>
   <path class="fil6" d="M85.58 264.88l0 -7.81 -3.03 0 0 -1.84c0.43,0.01 0.84,-0.02 1.23,-0.09 0.4,-0.08 0.75,-0.21 1.07,-0.4 0.32,-0.19 0.58,-0.44 0.8,-0.75 0.22,-0.31 0.36,-0.69 0.43,-1.15l1.94 0 0 12.04 -2.44 0z"/>
   <path class="fil6" d="M96.34 258.9c0.24,-0.12 0.44,-0.28 0.6,-0.49 0.17,-0.2 0.28,-0.44 0.37,-0.71 0.08,-0.27 0.12,-0.55 0.12,-0.85 0,-0.28 -0.05,-0.55 -0.13,-0.82 -0.09,-0.27 -0.22,-0.51 -0.38,-0.72 -0.17,-0.21 -0.37,-0.38 -0.61,-0.51 -0.24,-0.12 -0.52,-0.19 -0.83,-0.19 -0.28,0 -0.54,0.07 -0.77,0.19 -0.23,0.13 -0.43,0.29 -0.59,0.5 -0.16,0.21 -0.28,0.44 -0.36,0.7 -0.08,0.27 -0.12,0.54 -0.12,0.81 0,0.29 0.04,0.57 0.12,0.84 0.07,0.27 0.18,0.51 0.33,0.72 0.15,0.21 0.34,0.38 0.58,0.51 0.23,0.14 0.5,0.2 0.81,0.2 0.34,0 0.62,-0.06 0.86,-0.18zm-2.06 3.93c0.29,0.3 0.64,0.45 1.07,0.45 0.44,0 0.81,-0.13 1.1,-0.39 0.28,-0.26 0.51,-0.57 0.68,-0.95 0.18,-0.37 0.3,-0.77 0.37,-1.19 0.08,-0.42 0.13,-0.8 0.15,-1.14l-0.04 -0.03c-0.33,0.48 -0.72,0.83 -1.16,1.03 -0.45,0.21 -0.97,0.31 -1.55,0.31 -0.52,0 -1.02,-0.11 -1.51,-0.33 -0.5,-0.23 -0.92,-0.53 -1.26,-0.91 -0.32,-0.36 -0.56,-0.78 -0.7,-1.25 -0.15,-0.47 -0.23,-0.95 -0.23,-1.43 0,-0.62 0.1,-1.19 0.3,-1.73 0.2,-0.53 0.49,-0.99 0.86,-1.39 0.37,-0.39 0.82,-0.71 1.33,-0.94 0.52,-0.22 1.09,-0.34 1.72,-0.34 0.92,0 1.67,0.18 2.26,0.54 0.59,0.36 1.07,0.84 1.42,1.43 0.36,0.59 0.61,1.26 0.74,2 0.14,0.75 0.21,1.5 0.21,2.25 0,0.75 -0.09,1.49 -0.26,2.24 -0.17,0.74 -0.45,1.42 -0.82,2.02 -0.38,0.6 -0.87,1.09 -1.47,1.46 -0.59,0.37 -1.32,0.56 -2.18,0.56 -0.51,0 -1,-0.07 -1.44,-0.22 -0.45,-0.14 -0.85,-0.35 -1.19,-0.64 -0.34,-0.29 -0.62,-0.64 -0.84,-1.05 -0.22,-0.41 -0.36,-0.88 -0.43,-1.41l2.32 0c0.08,0.4 0.26,0.75 0.55,1.05z"/>
   <path class="fil6" d="M101.28 255.55c0.18,-0.59 0.45,-1.11 0.82,-1.55 0.37,-0.44 0.83,-0.78 1.39,-1.03 0.55,-0.25 1.19,-0.37 1.91,-0.37 0.55,0 1.08,0.09 1.58,0.26 0.49,0.17 0.93,0.42 1.31,0.74 0.38,0.32 0.68,0.71 0.9,1.18 0.23,0.47 0.34,1 0.34,1.59 0,0.6 -0.1,1.12 -0.29,1.56 -0.2,0.44 -0.46,0.82 -0.78,1.16 -0.32,0.34 -0.68,0.65 -1.09,0.92 -0.41,0.28 -0.82,0.55 -1.23,0.82 -0.41,0.27 -0.81,0.56 -1.2,0.86 -0.39,0.31 -0.74,0.68 -1.03,1.09l5.69 0 0 2.1 -8.84 0c0,-0.7 0.1,-1.31 0.3,-1.83 0.2,-0.51 0.47,-0.97 0.82,-1.38 0.34,-0.41 0.75,-0.78 1.21,-1.13 0.46,-0.34 0.95,-0.69 1.47,-1.05 0.26,-0.18 0.54,-0.36 0.84,-0.55 0.3,-0.19 0.57,-0.4 0.82,-0.63 0.25,-0.23 0.45,-0.49 0.62,-0.77 0.16,-0.29 0.25,-0.62 0.25,-0.99 0,-0.58 -0.17,-1.04 -0.51,-1.36 -0.34,-0.33 -0.77,-0.49 -1.3,-0.49 -0.35,0 -0.65,0.08 -0.9,0.25 -0.25,0.16 -0.44,0.38 -0.59,0.65 -0.15,0.27 -0.26,0.57 -0.32,0.89 -0.06,0.33 -0.1,0.66 -0.1,0.98l-2.33 0c-0.03,-0.69 0.05,-1.33 0.24,-1.92z"/>
   <path class="fil6" d="M117.17 256.97c-0.49,0.8 -0.89,1.65 -1.22,2.56 -0.33,0.9 -0.58,1.82 -0.76,2.75 -0.17,0.93 -0.27,1.79 -0.28,2.6l-2.61 0c0.13,-1.8 0.56,-3.53 1.26,-5.2 0.7,-1.66 1.63,-3.18 2.78,-4.57l-5.71 0 0 -2.27 8.22 0 0 2.1c-0.63,0.55 -1.19,1.23 -1.68,2.03z"/>
  </g>
 </g>
</svg>
